<?xml version="1.0" encoding="iso-8859-1"?>
<!-- Generator: Adobe Illustrator 19.0.0, SVG Export Plug-In . SVG Version: 6.00 Build 0)  -->
<svg version="1.1" id="Layer_1" xmlns="http://www.w3.org/2000/svg" xmlns:xlink="http://www.w3.org/1999/xlink" x="0px" y="0px"
	 viewBox="0 0 512 512" style="enable-background:new 0 0 512 512;" xml:space="preserve">
<polygon style="fill:#FF7099;" points="501.801,70.979 441.021,10.199 256,195.221 70.979,10.199 10.199,70.979 195.221,256 
	10.199,441.021 70.979,501.801 256,316.78 441.021,501.801 501.801,441.021 316.78,256 "/>
<g>
	<path style="fill:#DB006E;" d="M441.02,512c-2.61,0-5.221-0.995-7.212-2.987L256,331.204L78.191,509.013
		c-3.983,3.983-10.441,3.983-14.425,0l-60.779-60.78c-3.983-3.983-3.983-10.441,0-14.425L180.796,256L2.987,78.191
		c-3.983-3.983-3.983-10.441,0-14.425l60.78-60.779c3.983-3.983,10.441-3.983,14.425,0L256,180.796L433.809,2.987
		c3.983-3.983,10.441-3.983,14.425,0l60.78,60.78c3.983,3.983,3.983,10.441,0,14.425L331.204,256l177.809,177.809
		c3.983,3.983,3.983,10.441,0,14.425l-60.78,60.78C446.241,511.004,443.631,512,441.02,512z M256,306.581
		c2.61,0,5.221,0.995,7.212,2.987L441.02,487.377l46.356-46.356L309.568,263.213c-3.983-3.983-3.983-10.441,0-14.425L487.377,70.979
		L441.02,24.623l-177.808,177.81c-3.983,3.983-10.441,3.983-14.425,0L70.979,24.623L24.623,70.979l177.809,177.809
		c3.983,3.983,3.983,10.441,0,14.425L24.623,441.02l46.356,46.356l177.809-177.809C250.78,307.576,253.39,306.581,256,306.581z"/>
	<path style="fill:#DB006E;" d="M425.307,417.147c-2.61,0-5.221-0.995-7.212-2.987L303.864,299.929
		c-3.983-3.983-3.983-10.441,0-14.425c3.983-3.983,10.441-3.983,14.425,0l114.231,114.231c3.983,3.983,3.983,10.441,0,14.425
		C430.527,416.152,427.917,417.147,425.307,417.147z"/>
	<path style="fill:#DB006E;" d="M460.494,452.334c-2.61,0-5.221-0.995-7.212-2.987l-7.647-7.647c-3.983-3.983-3.983-10.441,0-14.425
		c3.983-3.984,10.441-3.983,14.425,0l7.647,7.647c3.983,3.983,3.983,10.441,0,14.425
		C465.715,451.339,463.104,452.334,460.494,452.334z"/>
</g>
<g>
</g>
<g>
</g>
<g>
</g>
<g>
</g>
<g>
</g>
<g>
</g>
<g>
</g>
<g>
</g>
<g>
</g>
<g>
</g>
<g>
</g>
<g>
</g>
<g>
</g>
<g>
</g>
<g>
</g>
</svg>
