<?xml version="1.0" encoding="iso-8859-1"?>
<!-- Generator: Adobe Illustrator 19.0.0, SVG Export Plug-In . SVG Version: 6.00 Build 0)  -->
<svg version="1.1" id="Layer_1" xmlns="http://www.w3.org/2000/svg" xmlns:xlink="http://www.w3.org/1999/xlink" x="0px" y="0px"
	 viewBox="0 0 460 460" style="enable-background:new 0 0 460 460;" xml:space="preserve">
<g>
	<path style="fill:#FF7F4F;" d="M230.333,0C103.308,0,0,102.974,0,230c0,98.785,62.479,183.024,150.004,215.598l297.381-291.024
		C416.25,64.595,330.94,0,230.333,0z"/>
	<path style="fill:#FF5419;" d="M460,230c0-26.416-4.467-51.784-12.663-75.41l-44.274-44.274l-345.46,201.7l50.785,50.785
		l-10.785,30.515l52.366,52.367C174.895,454.935,202.188,460,230.333,460C357.359,460,460,357.026,460,230z"/>
	<polygon style="fill:#71E2F0;" points="403.063,110.317 403.063,312.017 230.333,312.017 200.003,211.167 230.333,110.317 	"/>
	<polygon style="fill:#C2FBFF;" points="230.333,110.317 230.333,312.017 178.893,312.017 97.603,393.317 97.603,312.017 
		57.603,312.017 57.603,110.317 	"/>
	<polygon style="fill:#C2FBFF;" points="383.063,130.317 383.063,292.017 230.333,292.017 210.333,211.167 230.333,130.317 	"/>
	<rect x="77.603" y="130.317" style="fill:#FFFFFF;" width="152.73" height="161.7"/>
	<rect x="97.603" y="241.167" style="fill:#366796;" width="132.73" height="20"/>
	<polygon style="fill:#121149;" points="230.333,221.167 363.063,221.167 363.063,201.167 230.333,201.167 220.333,211.167 	"/>
	<rect x="97.603" y="201.167" style="fill:#366796;" width="132.73" height="20"/>
	<polygon style="fill:#121149;" points="230.333,181.167 363.063,181.167 363.063,161.167 230.333,161.167 220.333,171.167 	"/>
	<rect x="97.603" y="161.167" style="fill:#366796;" width="132.73" height="20"/>
</g>
<g>
</g>
<g>
</g>
<g>
</g>
<g>
</g>
<g>
</g>
<g>
</g>
<g>
</g>
<g>
</g>
<g>
</g>
<g>
</g>
<g>
</g>
<g>
</g>
<g>
</g>
<g>
</g>
<g>
</g>
</svg>
